<svg width="200" height="200" viewBox="0 0 200 200" fill="none" xmlns="http://www.w3.org/2000/svg">
    <style>
        :root {
            --flow-out-color: #B397A4;
        }
    </style>
    <g clip-path="url(#clip0_24_109)">
        <circle cx="100" cy="99" r="100" fill="var(--flow-out-color)" />
        <path
            d="M126.866 128.293L126.528 128.08C126.307 127.941 124.957 127.117 124.548 126.862C123.711 126.34 123.017 125.879 122.337 125.394C113.591 119.136 109.558 108.667 110.165 87.0598C111.022 56.4613 124.535 40.2125 143.631 40.0166L144.231 40.0133C145.973 40 147.715 39.9967 149.457 40.0033L150.177 40.0066C151.955 40.0075 153.661 40.7068 154.92 41.9513C156.179 43.1958 156.89 44.8843 156.896 46.6469L157 162.845C156.999 165.49 155.939 168.026 154.053 169.896C152.167 171.766 149.609 172.817 146.941 172.819H136.935C135.613 172.824 134.303 172.57 133.081 172.071C131.858 171.573 130.747 170.839 129.812 169.914C128.876 168.988 128.134 167.888 127.629 166.678C127.123 165.467 126.864 164.169 126.866 162.859V128.296V128.293ZM66.5651 46.6669V89.8155C66.5651 90.696 66.2122 91.5405 65.584 92.1632C64.9558 92.7858 64.1038 93.1356 63.2154 93.1356C62.327 93.1356 61.475 92.7858 60.8468 92.1632C60.2186 91.5405 59.8657 90.696 59.8657 89.8155V46.6702H49.81L49.6994 99.8257C49.6894 104.109 51.3307 108.405 54.0373 111.881C56.2179 114.68 58.7871 116.43 59.8557 116.43C60.7418 116.43 61.5917 116.778 62.2195 117.398C62.8473 118.017 63.2018 118.858 63.2054 119.737L63.3226 156.554C63.3207 157.851 63.5792 159.137 64.083 160.334C64.5868 161.532 65.3259 162.619 66.2573 163.531C67.1887 164.443 68.2938 165.162 69.5082 165.647C70.7227 166.132 72.0223 166.372 73.3315 166.355C76.0067 166.306 78.5556 165.218 80.43 163.326C82.3043 161.433 83.3542 158.887 83.3537 156.235L83.2365 119.76C83.2347 119.323 83.3201 118.89 83.4876 118.485C83.6552 118.081 83.9016 117.713 84.2128 117.404C84.5241 117.094 84.8939 116.848 85.3012 116.68C85.7085 116.513 86.1452 116.426 86.5862 116.426C91.6107 116.426 96.3941 109.208 96.441 99.8058L96.7056 46.6536L86.6632 46.6569V89.8155C86.6632 90.696 86.3103 91.5405 85.6821 92.1632C85.0539 92.7858 84.2019 93.1356 83.3135 93.1356C82.4252 93.1356 81.5731 92.7858 80.945 92.1632C80.3168 91.5405 79.9639 90.696 79.9639 89.8155V46.6602L66.5651 46.6669ZM144.285 46.6536H143.702C128.548 46.8096 117.628 59.9441 116.861 87.239C116.311 106.835 119.53 115.195 126.26 120.009C126.809 120.401 127.395 120.786 128.119 121.237C128.497 121.476 129.834 122.293 130.082 122.449C130.926 122.974 131.573 123.395 132.192 123.844L133.566 124.84V162.859C133.566 164.708 135.049 166.179 136.935 166.179H146.941C148.793 166.179 150.304 164.678 150.301 162.852L150.147 46.6469H149.43C147.772 46.637 145.973 46.6403 144.285 46.6536ZM56.6232 156.574L56.5127 122.376C49.7698 119.684 42.9799 109.57 43 99.8124L43.1106 46.6569C43.1093 45.7838 43.2818 44.919 43.6184 44.1122C43.955 43.3053 44.449 42.5723 45.072 41.9551C45.695 41.3378 46.4348 40.8486 47.249 40.5154C48.0632 40.1822 48.9358 40.0115 49.8167 40.0133H96.7123C100.434 40.0133 103.418 43.0014 103.402 46.6835L103.134 99.839C103.08 110.908 97.6569 120.437 89.9426 122.605L90.0531 156.218C90.0833 165.352 82.6403 172.869 73.4286 172.998C71.2332 173.029 69.0537 172.626 67.0165 171.815C64.9793 171.003 63.1251 169.799 61.5615 168.271C59.998 166.743 58.7563 164.922 57.9085 162.915C57.0608 160.908 56.6239 158.753 56.6232 156.577V156.574Z"
            fill="white" />
        <path
            d="M66.5651 46.6669V89.8155C66.5651 90.696 66.2122 91.5405 65.584 92.1632C64.9558 92.7858 64.1038 93.1356 63.2154 93.1356C62.327 93.1356 61.475 92.7858 60.8468 92.1632C60.2186 91.5405 59.8657 90.696 59.8657 89.8155V46.6702H49.81L49.6994 99.8257C49.6894 104.109 51.3307 108.405 54.0373 111.881C56.2179 114.68 58.7871 116.43 59.8557 116.43C60.7418 116.43 61.5917 116.778 62.2195 117.398C62.8473 118.017 63.2018 118.858 63.2054 119.737L63.3226 156.554C63.3207 157.851 63.5792 159.137 64.083 160.334C64.5868 161.532 65.3259 162.619 66.2573 163.531C67.1887 164.443 68.2938 165.162 69.5082 165.647C70.7227 166.132 72.0223 166.372 73.3315 166.355C76.0067 166.306 78.5556 165.218 80.43 163.326C82.3043 161.433 83.3542 158.887 83.3537 156.235L83.2365 119.76C83.2347 119.323 83.3201 118.89 83.4876 118.485C83.6552 118.081 83.9016 117.713 84.2128 117.404C84.5241 117.094 84.8939 116.848 85.3012 116.68C85.7085 116.513 86.1452 116.426 86.5862 116.426C91.6107 116.426 96.3941 109.208 96.441 99.8058L96.7056 46.6536L86.6632 46.6569V89.8155C86.6632 90.696 86.3103 91.5405 85.6821 92.1632C85.0539 92.7858 84.2019 93.1356 83.3135 93.1356C82.4252 93.1356 81.5731 92.7858 80.945 92.1632C80.3168 91.5405 79.9639 90.696 79.9639 89.8155V46.6602L66.5651 46.6669Z"
            fill="var(--flow-out-color)" />
        <path
            d="M144.285 46.6536H143.702C128.548 46.8096 117.628 59.9441 116.861 87.239C116.311 106.835 119.53 115.195 126.26 120.009C126.809 120.401 127.395 120.786 128.119 121.237C128.497 121.476 129.834 122.293 130.082 122.449C130.926 122.974 131.573 123.395 132.192 123.844L133.566 124.84V162.859C133.566 164.708 135.049 166.179 136.935 166.179H146.941C148.793 166.179 150.304 164.678 150.301 162.852L150.147 46.6469H149.43C147.772 46.637 145.973 46.6403 144.285 46.6536Z"
            fill="var(--flow-out-color)" />
    </g>
    <defs>
        <clipPath id="clip0_24_109">
            <rect width="200" height="200" fill="white" />
        </clipPath>
    </defs>
</svg>