<svg width="200" height="200" viewBox="0 0 200 200" fill="none" xmlns="http://www.w3.org/2000/svg">
<style>
        :root {
            --flow-in-color: #A29F80;
        }
    </style>
    <g clip-path="url(#clip0_33_107)">
<path d="M200 99C200 154.228 155.228 199 100 199C44.7715 199 0 154.228 0 99C0 43.7715 44.7715 -1 100 -1C155.228 -1 200 43.7715 200 99Z" fill="var(--flow-in-color)"/>
<path d="M120.9 78.6265C120.583 78.3133 119.633 78 119 78H80.9893C80.3558 78 79.4055 78.3133 79.0888 78.6265C77.505 79.8795 38.5445 111.518 48.6806 141.904C51.5313 150.361 59.7669 156 68.9527 156H131.036C140.539 156 148.774 150.361 151.308 141.904C161.444 111.518 122.801 79.8795 120.9 78.6265ZM145.29 140.024C143.389 145.976 137.371 150.048 131.036 150.048H68.9527C62.3009 150.048 56.5994 145.976 54.6988 140.024C46.78 115.904 76.8715 88.6506 82.2563 84.2651H118.049C123.434 88.9639 153.209 115.904 145.29 140.024Z" fill="white" stroke="white" stroke-width="2"/>
<path d="M115.744 118.804C117.321 118.804 118.898 117.219 118.898 115.633C118.898 114.048 117.321 112.462 115.744 112.462H105.966L114.167 104.218C115.429 102.95 115.429 101.047 114.167 99.7792C112.905 98.5108 111.013 98.5108 109.751 99.7792L99.9731 109.609L90.1951 99.7792C88.9334 98.5108 87.0408 98.5108 85.7792 99.7792C84.5175 101.047 84.5175 102.95 85.7792 104.218L93.9801 112.462H84.2021C82.6249 112.462 81.0478 114.048 81.0478 115.633C81.0478 117.219 82.6249 118.804 84.2021 118.804H96.8189V125.146H84.2021C82.6249 125.146 81.0478 126.731 81.0478 128.317C81.0478 129.902 82.6249 131.487 84.2021 131.487H96.8189V137.829C96.8189 139.415 98.396 141 99.9731 141C101.55 141 103.127 139.415 103.127 137.829V131.487H115.744C117.321 131.487 118.898 129.902 118.898 128.317C118.898 126.731 117.321 125.146 115.744 125.146H103.127V118.804H115.744V118.804ZM82.9404 71.2416H116.69C118.898 71.2416 121.106 70.2904 122.368 68.705C126.784 63.6316 131.831 56.6558 130.884 50.3141C130.569 47.4604 128.992 45.2408 126.469 43.3383C117.952 37.6308 106.597 43.6554 100.289 47.7775C99.6577 48.0945 99.0269 48.0945 98.7115 47.7775C92.7184 43.6554 81.0478 37.6308 72.5315 43.3383C70.0081 44.9237 68.431 47.4604 68.1156 50.3141C67.1693 56.6558 72.216 63.9487 76.6319 68.705C78.8399 70.2904 80.7324 71.2416 82.9404 71.2416ZM75.0548 50.9483C75.0548 49.997 75.6857 49.3629 76.6319 48.4116C77.8936 47.7775 79.4707 47.1433 81.0478 47.1433C86.7254 47.1433 93.3493 51.2654 95.5572 52.8508C98.0806 54.7533 101.55 54.7533 104.389 52.8508C107.543 50.9483 117.637 44.6066 123.63 48.4116C124.576 49.0458 125.207 49.68 125.207 50.9483C125.522 53.802 122.999 59.1925 118.268 64.5829C117.952 64.9 117.637 65.2171 117.321 65.2171H82.9404C82.6249 65.2171 81.9941 64.9 81.9941 64.5829C77.2628 59.1925 74.424 53.802 75.0548 50.9483V50.9483Z" fill="white" stroke="white" stroke-width="2"/>
</g>
<defs>
<clipPath id="clip0_33_107">
<rect width="200" height="200" fill="white"/>
</clipPath>
</defs>
</svg>
