<svg width="200" height="200" viewBox="0 0 200 200" fill="none" xmlns="http://www.w3.org/2000/svg">
<g clip-path="url(#clip0_24_112)">
<circle cx="100" cy="99" r="100" fill="#E8E8E8"/>
<path d="M156 131.953V139.066C156 141.338 155.753 143.314 155.26 144.994C154.767 146.673 153.879 148.007 152.596 148.995C151.313 149.983 149.389 150.477 146.824 150.477V159.664C146.824 162.233 145.911 164.431 144.086 166.259C142.261 168.086 140.065 169 137.5 169C134.935 169 132.764 168.086 130.988 166.259C129.212 164.431 128.324 162.233 128.324 159.664V150.477H72.676V159.664C72.676 162.233 71.788 164.431 70.012 166.259C68.236 168.086 66.0653 169 63.5 169C60.9347 169 58.7393 168.086 56.914 166.259C55.0887 164.431 54.176 162.233 54.176 159.664V150.477C51.7093 150.477 49.8347 149.983 48.552 148.995C47.2693 148.007 46.3813 146.673 45.888 144.994C45.3947 143.314 45.1233 141.363 45.074 139.14C45.0247 136.917 45 134.522 45 131.953V48.5235C45 45.9549 45.4933 43.5592 46.48 41.3364C47.4667 39.1135 48.7987 37.1624 50.476 35.4829C52.1533 33.8035 54.102 32.4698 56.322 31.4819C58.542 30.494 60.9347 30 63.5 30H137.5C140.065 30 142.458 30.494 144.678 31.4819C146.898 32.4698 148.847 33.8035 150.524 35.4829C152.201 37.1624 153.533 39.1135 154.52 41.3364C155.507 43.5592 156 45.9549 156 48.5235V131.953ZM81.704 39.1876C80.4213 39.1876 79.336 39.6322 78.448 40.5213C77.56 41.4104 77.116 42.4972 77.116 43.7815C77.116 45.1645 77.56 46.3006 78.448 47.1898C79.336 48.0789 80.4213 48.5235 81.704 48.5235H119.296C120.579 48.5235 121.664 48.0789 122.552 47.1898C123.44 46.3006 123.884 45.1645 123.884 43.7815C123.884 42.4972 123.44 41.4104 122.552 40.5213C121.664 39.6322 120.579 39.1876 119.296 39.1876H81.704ZM67.792 133.435C69.6667 133.435 71.27 132.768 72.602 131.434C73.934 130.101 74.6 128.495 74.6 126.618C74.6 124.741 73.934 123.136 72.602 121.802C71.27 120.469 69.6667 119.802 67.792 119.802C65.8187 119.802 64.1907 120.469 62.908 121.802C61.6253 123.136 60.984 124.741 60.984 126.618C60.984 128.495 61.6253 130.101 62.908 131.434C64.1907 132.768 65.8187 133.435 67.792 133.435ZM132.616 133.139C134.392 133.139 135.897 132.496 137.13 131.212C138.363 129.928 138.98 128.397 138.98 126.618C138.98 124.84 138.363 123.309 137.13 122.025C135.897 120.74 134.392 120.098 132.616 120.098C130.741 120.098 129.187 120.74 127.954 122.025C126.721 123.309 126.104 124.84 126.104 126.618C126.104 128.397 126.721 129.928 127.954 131.212C129.187 132.496 130.741 133.139 132.616 133.139ZM146.824 57.7111H54.176V94.758H146.824V57.7111Z" fill="#A6A6A6"/>
</g>
<defs>
<clipPath id="clip0_24_112">
<rect width="200" height="200" fill="white"/>
</clipPath>
</defs>
</svg>
