<svg width="200" height="200" viewBox="0 0 200 200" fill="none" xmlns="http://www.w3.org/2000/svg">
<g clip-path="url(#clip0_33_117)">
<path d="M200 99C200 154.228 155.228 199 100 199C44.7715 199 0 154.228 0 99C0 43.7715 44.7715 -1 100 -1C155.228 -1 200 43.7715 200 99Z" fill="#E8E8E8"/>
<path d="M133.202 91.6794V100.923C133.202 101.702 133.826 102.325 134.607 102.325C144.684 102.325 152.85 94.1721 152.85 84.1104V65.9344C152.85 64.8699 151.978 64 150.912 64H61.1403C50.5689 64 42 72.5557 42 83.1108C42 84.409 43.0532 85.4607 44.3535 85.4607H126.987C130.42 85.4736 133.202 88.252 133.202 91.6794ZM156.646 123.526H74.0131C70.5804 123.526 67.7977 120.748 67.7977 117.321V108.077C67.7977 107.298 67.1736 106.675 66.3934 106.675C56.3162 106.675 48.1504 114.828 48.1504 124.89V143.066C48.1504 144.13 49.0216 145 50.0878 145H139.86C150.431 145 159 136.444 159 125.889C159 124.578 157.947 123.526 156.646 123.526Z" fill="#B2B2B2"/>
</g>
<defs>
<clipPath id="clip0_33_117">
<rect width="200" height="200" fill="white"/>
</clipPath>
</defs>
</svg>
