<svg width="200" height="200" viewBox="0 0 200 200" fill="none" xmlns="http://www.w3.org/2000/svg">
<g clip-path="url(#clip0_24_130)">
<path d="M200 99C200 154.228 155.228 199 100 199C44.7715 199 0 154.228 0 99C0 43.7715 44.7715 -1 100 -1C155.228 -1 200 43.7715 200 99Z" fill="#E8E8E8"/>
<path d="M146.819 42C161.655 42 173 62.0347 173 88.4588C173 114.883 161.655 134.918 146.819 134.918C141.29 134.918 136.346 132.304 132.271 127.657V154.081C132.271 154.369 132.271 154.661 131.983 154.661C131.983 154.661 131.983 154.952 131.69 154.952C131.69 155.24 131.398 155.24 131.398 155.532C131.398 155.823 131.11 155.823 131.11 155.823L130.818 156.111C130.818 156.111 130.525 156.403 130.237 156.403C130.237 156.403 129.945 156.694 129.653 156.694C129.365 156.694 129.365 156.982 129.072 156.982C128.78 156.982 128.78 157.274 128.492 157.274C128.2 157.274 128.2 157.274 127.907 157.566C127.619 157.566 127.619 157.566 127.327 157.853H124.709C124.416 157.853 124.128 157.853 124.128 157.566L113.944 152.918L103.764 157.566C102.311 158.145 100.565 158.145 98.8199 157.566L88.6354 152.918L78.4552 157.566C77.0022 158.145 75.2568 158.145 73.5114 157.566L63.3269 152.918L53.1467 157.566C52.8544 157.566 52.5664 157.853 52.274 157.853H50.821C50.2362 157.853 49.9483 157.853 49.3635 157.566H49.0755C48.6371 157.493 48.231 157.289 47.9105 156.982H47.6181C47.3301 156.694 46.7454 156.403 46.4574 156.111L46.1651 155.823C45.8727 155.532 45.5847 155.24 45.5847 154.661C45.5847 154.369 45.2924 154.369 45.2924 154.081C45.2924 153.789 45.2924 153.789 45 153.498V88.4588C45 62.0347 56.3452 42 71.1812 42H146.819ZM146.819 123.302C152.928 123.302 161.362 109.944 161.362 88.4588C161.362 66.9737 152.928 53.6158 146.819 53.6158C140.71 53.6158 132.271 66.9737 132.271 88.4588C132.271 109.944 140.71 123.302 146.819 123.302ZM120.638 88.4588C120.638 74.2298 123.836 62.0347 129.072 53.6158H71.1812C65.0723 53.6158 56.6376 66.9737 56.6376 88.4588V143.337L61.0011 141.303C62.4541 140.723 64.1996 140.723 65.945 141.303L76.1295 145.95L86.3096 141.303C87.7627 140.723 89.5081 140.723 91.2535 141.303L101.438 145.95L111.618 141.303C113.071 140.723 114.817 140.723 116.562 141.303L120.926 143.337V88.4588H120.638Z" fill="#A6A6A6"/>
</g>
<defs>
<clipPath id="clip0_24_130">
<rect width="200" height="200" fill="white"/>
</clipPath>
</defs>
</svg>
