<svg width="200" height="200" viewBox="0 0 200 200" fill="none" xmlns="http://www.w3.org/2000/svg">
<style>
        :root {
            --flow-out-color: #B397A4;
        }
    </style>
<g clip-path="url(#clip0_24_147)">
<circle cx="100" cy="99" r="100" fill="var(--flow-out-color)"/>
<path d="M67.9984 59.6959C66.5294 59.6959 65.4277 59.4309 64.6932 58.9008C63.9587 58.3707 63.434 57.7345 63.1192 56.9924C62.6995 56.1442 62.4897 55.19 62.4897 54.1298V43.6336C62.4897 41.6192 62.8831 40.1084 63.6701 39.1011C64.4571 38.0939 65.3227 37.3253 66.2671 36.7952C67.4213 36.2651 68.6804 36 70.0445 36H130.955C132.32 36 133.579 36.2651 134.733 36.7952C135.677 37.3253 136.543 38.0939 137.33 39.1011C138.117 40.1084 138.51 41.6192 138.51 43.6336V54.1298C138.51 55.19 138.3 56.1442 137.881 56.9924C137.566 57.7345 137.068 58.3707 136.386 58.9008C135.703 59.4309 134.628 59.6959 133.159 59.6959H67.9984ZM150 148.436C150 150.769 149.58 152.889 148.741 154.798C148.006 156.388 146.878 157.819 145.357 159.092C143.835 160.364 141.658 161 138.825 161H62.3323C59.3943 161 57.1908 160.364 55.7218 159.092C54.2528 157.819 53.151 156.388 52.4165 154.798C51.5771 152.889 51.1049 150.769 51 148.436V88.958C51 85.4593 51.6296 82.9678 52.8887 81.4835C54.1479 79.9992 55.3021 78.7269 56.3514 77.6667L67.5262 67.1705H135.677L144.649 77.6667C145.698 78.7269 146.852 79.9992 148.111 81.4835C149.37 82.9678 150 85.4593 150 88.958V148.436ZM125.447 107.406H108.921V90.5483H92.0795V107.406H75.5533V124.422H92.0795V141.121H108.921V124.422H125.447V107.406Z" fill="white"/>
</g>
<defs>
<clipPath id="clip0_24_147">
<rect width="200" height="200" fill="white"/>
</clipPath>
</defs>
</svg>
