<svg width="200" height="200" viewBox="0 0 200 200" fill="none" xmlns="http://www.w3.org/2000/svg">
<style>
        :root {
            --flow-out-color: #B397A4;
        }
    </style>
<g clip-path="url(#clip0_24_141)">
<circle cx="100" cy="99" r="100" fill="var(--flow-out-color)"/>
<path d="M115.484 25.3148C108.917 25.3148 103.174 31.4019 100.026 40.4876C96.8925 31.222 91.1052 25 84.4634 25C74.5082 25 66.442 38.9883 66.442 56.2301C70.64 56.1251 68.1362 41.6121 81.09 39.5131C95.5581 37.1742 99.8011 50.4578 99.8011 50.4578C99.8011 50.4578 103.07 38.1937 117.733 39.3781C130.791 40.4276 130.476 56.5449 133.505 56.5449C133.505 39.3032 125.439 25.3148 115.484 25.3148Z" fill="white"/>
<path d="M164.54 151.24L125.754 103.622C120.821 99.4845 117.688 93.2774 117.688 86.3507C117.688 79.9938 120.326 73.7268 124.569 69.6187C130.341 66.2453 134.015 59.7984 133.505 52.6768C132.8 42.6766 124.119 35.1502 114.119 35.8699C108.077 36.3047 102.935 39.6481 99.966 44.4458C96.7725 39.2732 91.0453 35.8249 84.5234 35.8249C74.5082 35.8249 66.382 43.951 66.382 53.9662C66.382 59.2737 68.661 64.0414 72.3042 67.3548C73.2787 67.9845 75.2728 69.5588 75.3777 69.6187V69.6937C79.6957 73.5918 82.7392 79.7539 82.7392 86.3507C82.7392 93.2624 79.6207 99.4395 74.7331 103.578L35.4668 151.195C34.5373 152.319 35.062 154.028 36.4563 154.433C41.6888 155.932 52.5287 158.856 57.7162 158.856C64.6879 158.856 74.6431 153.848 80.7452 153.564C86.8473 153.279 93.4741 158.856 99.996 158.856C106.518 158.856 111.091 153.669 117.028 153.564C122.965 153.459 138.663 158.856 144.42 158.856C148.678 158.856 158.663 155.962 163.596 154.448C164.945 154.043 165.44 152.349 164.54 151.24Z" fill="white"/>
</g>
<defs>
<clipPath id="clip0_24_141">
<rect width="200" height="200" fill="white"/>
</clipPath>
</defs>
</svg>
