<svg width="200" height="200" viewBox="0 0 200 200" fill="none" xmlns="http://www.w3.org/2000/svg">
<style>
        :root {
            --flow-out-color: #B397A4;
        }
    </style>
    <g clip-path="url(#clip0_24_156)">
<path d="M200 99C200 154.228 155.228 199 100 199C44.7715 199 0 154.228 0 99C0 43.7715 44.7715 -1 100 -1C155.228 -1 200 43.7715 200 99Z" fill="var(--flow-out-color)"/>
<path d="M150.01 57.5063C150.01 54.7452 147.769 52.5045 145.007 52.5045H86.0048V42.5009C86.0048 41.1131 84.8916 40 83.5036 40H68.5108C67.1373 40 66.0096 41.1131 66.0096 42.5009V52.5045H55.0072C52.2458 52.5045 50.0048 54.7452 50.0048 57.5063L40 92.5045C40 95.2656 42.241 97.5063 45.0024 97.5063H154.998C157.759 97.5063 160 95.2656 160 92.5045L150.01 57.5063ZM52 155.201C52 157.846 54.1542 160 56.8 160H90.4V128.211C90.4 126.881 91.4699 125.811 92.8 125.811H107.2C108.53 125.811 109.6 126.881 109.6 128.211V160H143.2C145.846 160 148 157.846 148 155.201V103H52V155.201Z" fill="white"/>
</g>
<defs>
<clipPath id="clip0_24_156">
<rect width="200" height="200" fill="white"/>
</clipPath>
</defs>
</svg>
