<svg width="200" height="200" viewBox="0 0 200 200" fill="none" xmlns="http://www.w3.org/2000/svg">
<style>
        :root {
            --flow-out-color: #B397A4;
        }
    </style>
    <g clip-path="url(#clip0_24_150)">
<path d="M100 200C44.7733 200 0 155.227 0 100C0 44.7733 44.7733 0 100 0C155.227 0 200 44.7733 200 100C200 155.227 155.227 200 100 200ZM154.293 67.7244C140.853 54.4889 119.058 54.4889 105.622 67.7244L102.187 71.1022L98.7556 67.7244C85.3111 54.4889 63.52 54.4889 50.0844 67.7244C46.8928 70.8454 44.3568 74.5725 42.6255 78.687C40.8941 82.8015 40.0022 87.2205 40.0022 91.6844C40.0022 96.1484 40.8941 100.567 42.6255 104.682C44.3568 108.796 46.8928 112.524 50.0844 115.644L53.5156 119.022L102.187 159.831L150.858 119.027L154.293 115.649C157.485 112.527 160.02 108.8 161.751 104.685C163.482 100.57 164.374 96.1508 164.374 91.6867C164.374 87.2225 163.482 82.8034 161.751 78.6885C160.02 74.5737 157.485 70.8461 154.293 67.7244Z" fill="var(--flow-out-color)"/>
<path d="M154.293 67.7244C140.853 54.4889 119.058 54.4889 105.622 67.7244L102.187 71.1022L98.7556 67.7244C85.3111 54.4889 63.52 54.4889 50.0844 67.7244C46.8928 70.8454 44.3568 74.5725 42.6255 78.687C40.8941 82.8015 40.0022 87.2205 40.0022 91.6844C40.0022 96.1484 40.8941 100.567 42.6255 104.682C44.3568 108.796 46.8928 112.524 50.0844 115.644L53.5156 119.022L102.187 159.831L150.858 119.027L154.293 115.649C157.485 112.527 160.02 108.8 161.751 104.685C163.482 100.57 164.374 96.1508 164.374 91.6867C164.374 87.2225 163.482 82.8034 161.751 78.6885C160.02 74.5737 157.485 70.8461 154.293 67.7244Z" fill="white"/>
</g>
<defs>
<clipPath id="clip0_24_150">
<rect width="200" height="200" fill="white"/>
</clipPath>
</defs>
</svg>
