<svg width="153" height="159" viewBox="0 0 153 159" fill="none" xmlns="http://www.w3.org/2000/svg">
<path d="M140.266 0H12.7343C5.78264 0 0.146132 4.72137 0 10.6142H0.87679C0.584527 10.6142 0.31314 10.6319 0 10.6497V148.155C0 154.137 5.72002 159 12.7552 159H140.266C147.28 159 153 154.137 153 148.155V10.6319C152.854 4.72137 147.196 0 140.266 0ZM80.2681 117.484C80.2681 120.608 77.262 123.164 73.5878 123.164H43.1089C39.4347 123.164 36.4286 120.608 36.4286 117.484C36.4286 114.36 39.4347 111.804 43.1089 111.804H73.5878C77.262 111.804 80.2681 114.36 80.2681 117.484ZM99.0565 79.5C99.0565 82.6239 96.0503 85.1798 92.3762 85.1798H43.1089C39.4347 85.1798 36.4286 82.6239 36.4286 79.5C36.4286 76.3761 39.4347 73.8202 43.1089 73.8202H92.3762C96.0503 73.8202 99.0565 76.3761 99.0565 79.5ZM116.592 41.5161C116.592 44.64 113.586 47.1959 109.912 47.1959H43.1089C39.4347 47.1959 36.4286 44.64 36.4286 41.5161C36.4286 38.3922 39.4347 35.8362 43.1089 35.8362H109.912C113.586 35.8362 116.592 38.3922 116.592 41.5161Z" fill="#B9B9B9"/>
</svg>
