<svg width="200" height="200" viewBox="0 0 200 200" fill="none" xmlns="http://www.w3.org/2000/svg">
<style>
        :root {
            --flow-out-color: #B397A4;
        }
    </style>
    <g clip-path="url(#clip0_24_164)">
<path d="M200 99C200 154.228 155.228 199 100 199C44.7715 199 0 154.228 0 99C0 43.7715 44.7715 -1 100 -1C155.228 -1 200 43.7715 200 99Z" fill="var(--flow-out-color)"/>
<path d="M43.7867 120C32.8617 120 24 111.043 24 100C24 88.9572 32.8617 80 43.7867 80C54.7117 80 63.5734 88.9572 63.5734 100C63.5734 111.043 54.7117 120 43.7867 120ZM100 120C89.075 120 80.2133 111.043 80.2133 100C80.2133 88.9572 89.075 80 100 80C110.925 80 119.787 88.9572 119.787 100C119.787 111.043 110.925 120 100 120ZM156.213 120C145.288 120 136.427 111.043 136.427 100C136.427 88.9572 145.288 80 156.213 80C167.138 80 176 88.9572 176 100C176 111.043 167.138 120 156.213 120Z" fill="white"/>
</g>
<defs>
<clipPath id="clip0_24_164">
<rect width="200" height="200" fill="white"/>
</clipPath>
</defs>
</svg>
