<svg width="153" height="149" viewBox="0 0 153 149" fill="none" xmlns="http://www.w3.org/2000/svg">
<path d="M24.0886 49.2661C27.9779 49.2661 30.8321 50.5345 32.6513 53.0712C34.4705 55.608 35.3801 58.4117 35.3801 61.4825V149H0V62.2836C0 58.1447 1.22325 54.9404 3.66974 52.6707C6.11624 50.401 8.78229 49.2661 11.6679 49.2661H24.0886ZM82.8044 0C86.1919 0 88.8893 1.10148 90.8967 3.30443C92.9041 5.50739 93.9077 8.14427 93.9077 11.2151V149H58.7159V11.6156C58.7159 9.6129 59.0922 7.87724 59.845 6.4086C60.5978 4.93997 61.5387 3.73835 62.6679 2.80376C63.797 1.86918 65.0517 1.16823 66.4317 0.700941C67.8118 0.233647 69.0664 0 70.1956 0H82.8044V0ZM141.332 86.7164C142.461 86.7164 143.685 87.0502 145.002 87.7177C146.319 88.3853 147.574 89.3199 148.766 90.5215C149.958 91.7231 150.961 93.0916 151.777 94.627C152.592 96.1624 153 97.7979 153 99.5336V149H117.808V99.9341C117.808 98.4655 118.09 96.9301 118.655 95.328C119.22 93.7258 120.004 92.2905 121.007 91.0222C122.011 89.7538 123.203 88.7191 124.583 87.918C125.963 87.1169 127.469 86.7164 129.1 86.7164H141.332Z" fill="#B9B9B9"/>
</svg>
