<svg width="176" height="175" viewBox="0 0 176 175" fill="none" xmlns="http://www.w3.org/2000/svg">
<path d="M171.135 103.906L156.292 92.6563C156.448 91.0938 156.604 89.375 156.604 87.5C156.604 85.625 156.448 83.9063 156.292 82.3438L171.135 71.0938C175.198 67.9688 176.292 62.5 173.635 57.8125L157.073 29.8438C155.198 26.5625 151.604 24.5313 147.854 24.5313C146.604 24.5313 145.51 24.6875 144.26 25.1563L126.604 32.0312C123.635 30 120.51 28.2813 117.385 26.875L114.729 8.90625C113.948 3.75 109.573 0 104.26 0H70.8229C65.5104 0 61.1354 3.75 60.3542 8.75L57.8542 26.875C54.7292 28.2813 51.7604 30 48.6354 32.0312L30.9792 25.1563C29.7292 24.6875 28.4792 24.5313 27.2292 24.5313C23.4792 24.5313 19.8854 26.4063 18.1667 29.6875L1.44792 57.8125C-1.20833 62.1875 -0.114584 67.9688 3.94792 71.0938L18.7917 82.3438C18.6354 84.2188 18.4792 85.9375 18.4792 87.5C18.4792 89.0625 18.4792 90.7813 18.7917 92.6563L3.94792 103.906C-0.114584 107.031 -1.20833 112.5 1.44792 117.188L18.0104 145.156C19.8854 148.438 23.4792 150.469 27.2292 150.469C28.4792 150.469 29.5729 150.313 30.8229 149.844L48.4792 142.969C51.4479 145 54.5729 146.719 57.6979 148.125L60.3542 166.094C60.9792 171.094 65.5104 175 70.8229 175H104.26C109.573 175 113.948 171.25 114.729 166.25L117.385 148.125C120.51 146.719 123.479 145 126.604 142.969L144.26 149.844C145.51 150.313 146.76 150.469 148.01 150.469C151.76 150.469 155.354 148.594 157.073 145.312L173.792 117.031C176.292 112.5 175.198 107.031 171.135 103.906V103.906ZM125.042 87.5C125.042 108.125 108.167 125 87.5417 125C66.9167 125 50.0417 108.125 50.0417 87.5C50.0417 66.875 66.9167 50 87.5417 50C108.167 50 125.042 66.875 125.042 87.5Z" fill="#B9B9B9"/>
</svg>
